<?xml version="1.0" encoding="UTF-8" ?>
<!DOCTYPE svg PUBLIC "-//W3C//DTD SVG 1.1//EN" "http://www.w3.org/Graphics/SVG/1.1/DTD/svg11.dtd">
<svg width="600pt" height="55pt" viewBox="0 0 600 55" version="1.1" xmlns="http://www.w3.org/2000/svg">
<g id="#ffffffff">
<path fill="#ffffff" opacity="1.00" d=" M 332.48 0.00 L 336.73 0.00 C 335.53 14.83 336.06 29.74 336.69 44.59 C 331.74 44.52 326.73 43.38 321.84 44.54 C 317.60 45.08 312.89 46.24 308.95 44.06 C 299.02 38.00 299.73 21.31 309.59 15.54 C 314.58 12.89 320.31 15.32 325.19 17.15 C 325.10 11.67 325.03 6.20 324.98 0.72 C 327.47 0.47 329.97 0.23 332.48 0.00 M 316.36 24.22 C 313.07 25.91 311.32 30.88 314.16 33.83 C 316.93 38.05 324.45 35.74 324.93 30.89 C 325.75 26.34 320.66 22.73 316.36 24.22 Z" />
<path fill="#ffffff" opacity="1.00" d=" M 18.96 1.01 C 23.64 1.01 28.32 1.00 33.00 1.01 C 32.27 12.38 31.96 23.78 31.92 35.18 C 38.06 34.94 44.16 34.35 50.28 33.90 C 49.93 37.97 49.46 42.03 48.98 46.09 C 39.33 45.79 29.69 45.27 20.04 44.91 C 20.02 30.27 20.23 15.61 18.96 1.01 Z" />
<path fill="#ffffff" opacity="1.00" d=" M 198.39 1.24 C 202.74 -0.86 209.11 3.66 206.50 8.59 C 206.75 12.47 201.27 11.51 199.09 12.00 C 194.15 10.57 193.70 3.31 198.39 1.24 Z" />
<path fill="#ffffff" opacity="1.00" d=" M 457.10 1.02 C 461.42 1.01 465.77 1.01 470.11 1.00 C 469.24 15.64 468.47 30.34 469.87 44.98 C 465.54 44.98 461.25 44.99 456.94 45.00 C 457.53 30.37 458.90 15.61 457.10 1.02 Z" />
<path fill="#ffffff" opacity="1.00" d=" M 477.39 1.24 C 481.74 -0.86 488.11 3.66 485.50 8.59 C 485.75 12.47 480.26 11.51 478.09 12.00 C 473.14 10.57 472.70 3.31 477.39 1.24 Z" />
<path fill="#ffffff" opacity="1.00" d=" M 58.96 15.95 C 61.64 14.35 65.00 14.71 67.95 14.71 C 74.26 15.05 80.60 14.84 86.88 15.69 C 86.24 25.51 86.21 35.36 86.99 45.17 C 82.57 44.80 78.19 43.92 73.75 43.76 C 68.79 44.09 63.53 47.52 58.95 44.08 C 49.66 38.11 49.26 21.84 58.96 15.95 M 60.83 26.64 C 62.40 29.38 62.36 34.77 66.34 35.70 C 72.67 38.16 75.20 31.10 76.17 26.64 C 71.29 24.50 65.71 24.50 60.83 26.64 Z" />
<path fill="#ffffff" opacity="1.00" d=" M 110.71 18.72 C 115.68 12.62 124.54 13.91 131.27 15.85 C 130.48 18.76 129.65 21.67 128.82 24.57 C 125.27 24.88 120.89 23.21 118.18 26.13 C 115.70 28.36 116.10 33.41 119.35 34.59 C 122.57 35.82 126.15 35.41 129.54 35.72 C 130.16 38.61 130.77 41.51 131.33 44.41 C 125.01 45.41 117.54 47.61 112.28 42.69 C 104.56 37.49 103.75 24.89 110.71 18.72 Z" />
<path fill="#ffffff" opacity="1.00" d=" M 144.43 14.48 C 149.44 13.13 154.69 14.27 158.99 17.03 C 168.47 23.60 166.62 41.82 154.89 44.93 C 149.61 46.87 143.65 46.12 139.01 42.98 C 128.99 35.98 131.82 16.89 144.43 14.48 M 142.98 30.00 C 142.81 34.82 148.81 35.93 152.15 37.15 C 155.02 32.65 155.02 27.35 152.15 22.85 C 148.81 24.07 142.81 25.18 142.98 30.00 Z" />
<path fill="#ffffff" opacity="1.00" d=" M 171.71 18.72 C 176.68 12.62 185.54 13.91 192.27 15.85 C 191.48 18.76 190.65 21.67 189.82 24.57 C 186.27 24.88 181.89 23.21 179.18 26.13 C 176.69 28.36 177.10 33.41 180.35 34.59 C 183.56 35.82 187.15 35.41 190.54 35.72 C 191.16 38.61 191.77 41.51 192.33 44.41 C 186.01 45.41 178.54 47.61 173.28 42.69 C 165.56 37.49 164.75 24.89 171.71 18.72 Z" />
<path fill="#ffffff" opacity="1.00" d=" M 213.09 16.15 C 216.67 15.46 220.24 14.77 223.82 14.08 C 224.21 15.20 224.62 16.33 225.02 17.46 C 230.54 14.64 237.69 12.28 242.87 17.15 C 244.93 26.22 243.72 35.76 244.11 45.00 C 241.38 45.00 235.93 45.00 233.20 45.00 C 232.80 38.83 233.90 32.44 232.49 26.37 C 231.30 22.90 227.46 25.03 224.90 25.30 C 224.93 31.87 224.97 38.43 225.01 45.00 C 222.29 45.00 216.86 45.00 214.14 45.00 C 214.00 35.38 213.77 25.75 213.09 16.15 Z" />
<path fill="#ffffff" opacity="1.00" d=" M 254.96 15.95 C 257.64 14.35 260.99 14.71 263.95 14.71 C 270.26 15.05 276.60 14.84 282.88 15.69 C 282.24 25.51 282.21 35.36 282.99 45.17 C 278.56 44.80 274.19 43.92 269.75 43.76 C 264.79 44.09 259.53 47.52 254.95 44.08 C 245.66 38.11 245.26 21.84 254.96 15.95 M 256.83 26.64 C 258.39 29.38 258.37 34.77 262.34 35.70 C 268.67 38.16 271.19 31.10 272.17 26.64 C 267.29 24.50 261.71 24.50 256.83 26.64 Z" />
<path fill="#ffffff" opacity="1.00" d=" M 345.90 16.88 C 351.35 12.97 359.55 12.67 364.76 17.24 C 369.32 20.35 369.52 26.47 370.10 31.38 C 363.41 31.95 356.74 32.69 350.09 33.65 C 351.77 35.06 353.41 36.58 355.43 37.50 C 358.96 37.61 362.34 36.58 365.60 35.38 C 366.96 37.60 368.29 39.85 369.57 42.13 C 362.26 46.54 351.79 47.89 344.98 42.01 C 337.65 35.52 338.63 22.99 345.90 16.88 M 352.57 22.37 C 351.16 23.60 350.05 25.11 348.89 26.56 C 352.59 26.32 356.34 25.94 360.02 25.37 C 357.83 23.80 355.60 21.81 352.57 22.37 Z" />
<path fill="#ffffff" opacity="1.00" d=" M 433.43 14.48 C 438.44 13.13 443.69 14.27 447.99 17.03 C 457.47 23.60 455.62 41.82 443.89 44.93 C 438.61 46.87 432.65 46.12 428.01 42.98 C 417.99 35.98 420.82 16.89 433.43 14.48 M 431.98 30.00 C 431.82 34.82 437.80 35.93 441.15 37.15 C 444.02 32.65 444.02 27.35 441.15 22.85 C 437.80 24.07 431.82 25.18 431.98 30.00 Z" />
<path fill="#ffffff" opacity="1.00" d=" M 195.17 15.01 C 199.41 15.01 203.65 15.01 207.90 15.01 C 207.20 24.99 206.81 35.03 207.98 44.99 C 203.64 44.99 199.32 44.99 194.99 45.00 C 195.44 35.02 196.25 24.98 195.17 15.01 Z" />
<path fill="#ffffff" opacity="1.00" d=" M 388.27 15.06 C 391.05 15.06 396.61 15.06 399.38 15.06 C 400.34 21.65 400.42 28.77 404.64 34.29 C 408.68 28.68 409.45 21.72 410.13 15.03 C 412.63 15.12 417.64 15.31 420.15 15.40 C 419.54 21.95 420.24 28.99 416.88 34.89 C 412.89 42.06 408.19 48.82 402.80 55.00 L 391.06 55.00 C 390.32 52.49 389.60 49.97 388.89 47.46 C 392.49 46.67 396.14 45.87 399.73 44.96 C 397.66 41.50 395.39 38.18 393.19 34.81 C 388.41 29.38 389.58 21.65 388.27 15.06 Z" />
<path fill="#ffffff" opacity="1.00" d=" M 474.17 15.01 C 478.39 15.01 482.65 15.01 486.90 15.01 C 486.19 24.99 485.81 35.03 486.98 44.99 C 482.62 44.99 478.31 44.99 473.99 45.00 C 474.44 35.02 475.25 24.98 474.17 15.01 Z" />
</g>
</svg>
