<?xml version="1.0" encoding="utf-8"?>
<!-- Generator: Adobe Illustrator 16.0.0, SVG Export Plug-In . SVG Version: 6.00 Build 0)  -->
<!DOCTYPE svg PUBLIC "-//W3C//DTD SVG 1.1//EN" "http://www.w3.org/Graphics/SVG/1.1/DTD/svg11.dtd">
<svg version="1.1" id="Capa_1" xmlns="http://www.w3.org/2000/svg" xmlns:xlink="http://www.w3.org/1999/xlink" x="0px" y="0px"
	 width="512px" height="512px" viewBox="0 0 512 512" enable-background="new 0 0 512 512" xml:space="preserve">
<g>
	<path fill="#FFFFFF" d="M27.171,157.974c-14.983,0-27.173,12.196-27.171,27.187v87.746c0,14.991,12.19,27.188,27.173,27.188h37.883
		v20.612c0,6.912,3.572,12.996,8.959,16.527c-8.521,17.287-14.269,39.376-8.295,75.644c-1.804,6.468-2.86,13.273-3.071,20.316
		c-0.115,3.681,1.379,5.998,2.651,7.293c2.544,2.588,5.643,2.826,7.787,2.826c0.259,0,1.396-0.014,1.396-0.014h5.724
		c5.016,31.188,31.552,54.696,63.243,54.696s58.226-23.509,63.242-54.696h156.857c0.279,2.519,0.682,5.014,1.209,7.468
		c0.551,2.422,2.018,4.566,4.225,5.755c2.371,1.276,4.746,0.983,7.248,0.404l8.401-1.933c4.378,11.817,12.466,21.817,23.32,28.62
		c9.249,5.797,19.706,8.781,30.351,8.781c4.315,0,8.661-0.49,12.971-1.483c28.373-6.531,46.979-33.187,44.259-61.438l10.647-2.449
		c4.034-0.929,6.553-4.952,5.627-8.988c-8.008-34.843-39.428-59.062-74.554-58.476l-11.356-39.236
		c-1.152-3.979-5.312-6.271-9.291-5.119c-3.979,1.151-6.271,5.31-5.119,9.289l11.875,41.02l-56.153,62.786h-13.481
		c23.258-54.631,38.391-108.613,11.871-189.485h21.321l14.902,51.495c1.151,3.978,5.309,6.275,9.29,5.119
		c3.979-1.152,6.271-5.312,5.119-9.289l-13.694-47.325h8.929c4.143,0,7.5-3.357,7.5-7.5v-39.035c0-1.935,0-7.826-4.662-11.191
		c-4.732-3.412-10.187-1.604-14.998-0.004l-52.504,17.356l-45.515-3.681l-18.706-16.089c0.005-12.42-1.236-23.353-3.732-32.625
		c23.821-4.723,41.84-25.798,41.84-51.014c0-2.929-0.25-5.813-0.719-8.643h5.096c4.142,0,7.5-3.357,7.5-7.5
		c0-35.781-28.543-64.89-63.627-64.89c-35.082,0-63.625,29.109-63.625,64.89c0,19.887,6.815,37.13,18.604,49.251
		c-10.044,7.013-21.749,18.744-31.778,38.311c-12.918,25.202-19.824,57.278-20.529,95.337v0.001
		c-0.438,9.006,0.23,16.745,2.035,23.306h-32.476v-99.934c0-14.992-12.19-27.188-27.173-27.188H27.171L27.171,157.974z
		 M415.917,470.907c-7.448-4.668-13.144-11.371-16.51-19.296l81.353-18.725c0.987,20.126-12.555,38.739-32.853,43.411h-0.001
		C436.878,478.837,425.518,476.924,415.917,470.907L415.917,470.907z M378.189,438.526l57.15-63.901
		c26.483-1.404,50.711,14.916,59.715,39.57l-116.666,26.846C378.305,440.207,378.239,439.369,378.189,438.526z M265.104,310.346
		c-2.904-7.662-9.245-11.547-18.844-11.548l-26.922-0.028c-12.535-0.012-21.047-2.563-26.021-7.802
		c-4.268-4.495-6.516-11.577-6.812-21.54h73.529c10.752,1.291,34.71,9.114,34.71,53.013v38.827h-27.463v-28.302
		C267.281,323.167,267.281,316.088,265.104,310.346L265.104,310.346z M302.244,376.267c3.172,0,9.124,0.66,13.35,5.082
		c2.842,2.975,4.571,7.272,5.17,12.826h-53.272c-0.072,0-0.142,0-0.21,0v-17.908H302.244z M186.836,254.429
		c3.361-79.852,35.131-107.844,49.576-116.474c5.295,3.115,11.16,5.464,17.507,6.938c3.118,0.917,6.293,1.542,9.49,1.872
		c1.756,5.436,2.97,11.84,3.622,19.014c-7.909-5.057-16.858-6.103-25.172-2.773c-9.104,3.647-15.59,12.168-16.521,21.707
		c-1.052,10.761,4.837,21.148,16.157,28.499l20.737,13.46c-2.008,9.7-4.45,19.138-7.189,27.757H186.836L186.836,254.429z
		 M264.09,71.391c-0.227,0-0.453,0.01-0.68,0.031c-12.454,1.134-15.069,9.516-15.069,16.349v39.463
		c-17.3-7.936-28.028-25.969-28.028-48.343c0-27.509,21.813-49.89,48.625-49.89c24.328,0,44.541,18.426,48.078,42.39H264.09z
		 M305.686,95.034c0,20.396-16.556,36.991-36.912,37.01c-0.016,0-0.032,0-0.049,0c-1.797-0.001-3.596-0.134-5.383-0.397V87.771
		c0-0.549,0.034-0.949,0.073-1.227c0.242-0.049,0.58-0.103,1.043-0.153h40.228C305.35,89.183,305.686,92.074,305.686,95.034
		L305.686,95.034z M315.407,210.954v12.863h-30.021l-35.726-23.188c-6.554-4.256-9.892-9.392-9.396-14.459
		c0.394-4.026,3.207-7.654,7.17-9.241c1.373-0.55,2.791-0.822,4.225-0.822c3.222,0,6.531,1.37,9.631,4.041l0.005,0.005l32.06,27.575
		c1.205,1.035,2.707,1.662,4.289,1.789l17.765,1.437H315.407z M353.01,219.976c-0.072,1.753-0.685,3.843-3.199,3.843h-19.401
		v-11.651l16.696,1.35C352.957,213.998,353.051,218.982,353.01,219.976z M364.855,208.34c-0.01-0.019-0.017-0.038-0.028-0.058
		l39.136-12.937v28.473h-36.336c0.004-0.02-0.008-0.041-0.008-0.062c0.193-1.024,0.333-2.075,0.378-3.166
		C368.17,216.377,367.115,212.044,364.855,208.34L364.855,208.34z M349.768,238.818c22.222,64.663,16.424,111.418,1.178,155.356
		h-15.131c-0.752-9.662-3.887-17.445-9.375-23.188c-5.207-5.449-11.433-7.903-16.694-8.966v-39.58
		c0-47.053-24.279-61.644-39.575-66.158c2.026-6.634,3.887-13.658,5.52-20.876l3.395,2.204c1.215,0.789,2.635,1.209,4.083,1.209
		H349.768L349.768,238.818z M225.811,428.301c-1.69-19.396-9.903-37.354-23.578-51.191c-15.411-15.596-35.955-24.184-57.85-24.184
		c-27.262,0-51.282,13.253-66.121,33.864c-0.316-21.631,5.016-35.322,10.943-46.325h70.258c4.143,0,7.5-3.356,7.5-7.5
		c0-4.143-3.357-7.5-7.5-7.5H84.798c-2.572,0-4.745-2.178-4.745-4.756v-20.613h53.615h47.706c0.349,0.405,0.697,0.812,1.065,1.2
		c7.955,8.378,20.02,12.458,36.885,12.474l26.928,0.028c4.119,0,4.447,0.864,4.826,1.865c0.781,2.058,1.054,5.542,1.15,9.802
		h-59.146c-4.144,0-7.5,3.357-7.5,7.5c0,4.144,3.356,7.5,7.5,7.5h59.199v28.302v26.752c0,9.062,5.116,13.656,15.21,13.656h77.874
		c-2.517,6.375-5.188,12.727-7.96,19.102L225.811,428.301z M143.448,482.999c-23.445,0-43.219-16.896-48.004-39.696h96.008
		C186.668,466.106,166.895,482.999,143.448,482.999L143.448,482.999z M78.001,428.303c0.453-4.281,1.29-8.435,2.475-12.426
		c0.03-0.087,0.058-0.175,0.084-0.263c8.382-27.817,33.688-47.688,63.823-47.688c34.324,0,62.68,26.464,66.362,60.377h-10.774
		H86.924H78.001z M14.998,246.365h111.171v38.731H27.171c-6.712,0-12.173-5.467-12.173-12.188V246.365z M14.998,215.414h111.171
		v15.951H14.998V215.414z M14.998,185.162c0-6.72,5.461-12.188,12.173-12.188h86.825c6.712,0,12.173,5.467,12.173,12.188v15.252
		H14.998V185.162z"/>
</g>
</svg>
