<?xml version="1.0" encoding="utf-8"?>
<!-- Generator: Adobe Illustrator 16.0.0, SVG Export Plug-In . SVG Version: 6.00 Build 0)  -->
<!DOCTYPE svg PUBLIC "-//W3C//DTD SVG 1.1//EN" "http://www.w3.org/Graphics/SVG/1.1/DTD/svg11.dtd">
<svg version="1.1" id="Layer_1" xmlns="http://www.w3.org/2000/svg" xmlns:xlink="http://www.w3.org/1999/xlink" x="0px" y="0px"
	 width="357px" height="340.16px" viewBox="206.175 0 357 340.16" enable-background="new 206.175 0 357 340.16"
	 xml:space="preserve">
<path fill="#FFFFFF" d="M465.611,135.489l20.025-1.269c0.033-0.003,0.07-0.005,0.106-0.008c14.271-1.204,27.079-8.68,35.146-20.517
	l15.831-23.226c13.778-20.22,19.117-44.642,15.026-68.765c-0.803-4.737-3.227-9.104-6.82-12.289c-3.597-3.188-8.22-5.071-13.02-5.3
	c-24.448-1.17-48.046,7.06-66.466,23.164l-21.162,18.501c-10.783,9.426-16.67,23.039-16.155,37.354
	c0.003,0.034,0.003,0.07,0.005,0.106l1.142,20.03c0.445,7.809-2.418,15.513-7.84,21.125L256.108,294.232
	c-4.426,4.615-6.711,10.947-6.433,17.83c0.307,7.577,3.784,15.02,9.301,19.91c4.985,4.418,11.836,6.936,18.686,6.936
	c0.733,0,1.467-0.029,2.197-0.089c6.868-0.549,12.882-3.575,16.954-8.552l148.755-184.45
	C450.501,139.749,457.809,135.983,465.611,135.489z M437.627,139.39L288.885,323.823c-2.273,2.777-5.768,4.488-9.839,4.813
	c-4.845,0.388-9.811-1.225-13.291-4.309c-3.479-3.087-5.674-7.824-5.869-12.679c-0.167-4.08,1.11-7.755,3.57-10.318l165.309-169.823
	c7.411-7.668,11.312-18.171,10.708-28.816l-1.142-19.978c-0.388-11.205,4.228-21.858,12.671-29.24l21.161-18.501
	c16.424-14.356,37.471-21.687,59.256-20.652c2.48,0.12,4.868,1.092,6.727,2.741c1.859,1.646,3.11,3.903,3.526,6.35
	c3.646,21.507-1.113,43.277-13.396,61.302l-15.831,23.229c-6.315,9.268-16.34,15.126-27.511,16.085l-19.971,1.264
	C454.324,125.967,444.364,131.1,437.627,139.39z"/>
<path fill="#FFFFFF" d="M543.649,292.942L432.801,191.98c-2.085-1.9-5.314-1.75-7.218,0.336c-1.898,2.086-1.748,5.317,0.338,7.219
	L536.74,300.473c2.637,2.438,4.132,6.027,4.212,10.11c0.097,4.857-1.81,9.717-5.099,13.007c-3.287,3.286-8.139,5.197-13.007,5.099
	c-4.082-0.08-7.674-1.575-10.084-4.184l-98.774-108.442c-1.901-2.088-5.134-2.236-7.219-0.338c-2.085,1.9-2.236,5.133-0.335,7.218
	l98.798,108.469c4.343,4.696,10.526,7.359,17.414,7.494c0.18,0.003,0.356,0.005,0.536,0.005c7.402,0,14.806-3.003,19.895-8.095
	c5.216-5.216,8.24-12.853,8.09-20.433C551.031,303.494,548.371,297.311,543.649,292.942z"/>
<path fill="#FFFFFF" d="M273.91,134.522c8.456,7.791,19.442,12.232,30.936,12.508c0.037,0.002,0.073,0.002,0.107,0.002l20.063,0.062
	c7.822,0.023,15.339,3.344,20.615,9.093l8.838,9.702c1.009,1.107,2.39,1.669,3.778,1.669c1.228,0,2.46-0.439,3.438-1.332
	c2.088-1.901,2.239-5.133,0.338-7.218l-8.851-9.715c-7.208-7.858-17.458-12.383-28.122-12.419l-20.009-0.062
	c-8.891-0.226-17.391-3.63-23.978-9.592L222.918,58.1c-0.593-0.708-0.549-1.732,0.104-2.385c0.447-0.45,0.972-0.515,1.246-0.515
	c0.273,0,0.798,0.065,1.248,0.515l52.926,52.929c5.232,5.232,13.745,5.232,18.977-0.002l6.22-6.217v-0.003l11.043-11.043
	c0,0,0.003,0,0.003-0.002l0.002-0.002l6.217-6.217c5.232-5.232,5.232-13.746,0-18.977l-52.926-52.926
	c-0.687-0.687-0.687-1.808,0-2.494c0.652-0.653,1.677-0.697,2.384-0.104l69.121,58.148c5.965,6.584,9.369,15.087,9.595,23.975
	l0.06,20.012c0.037,10.661,4.563,20.912,12.432,28.135l9.47,8.625c2.088,1.901,5.318,1.75,7.218-0.335
	c1.898-2.088,1.748-5.317-0.338-7.218l-9.455-8.612c-5.765-5.289-9.083-12.809-9.109-20.628l-0.062-20.063
	c0-0.037,0-0.073-0.002-0.109c-0.276-11.493-4.717-22.479-12.507-30.936c-0.146-0.159-0.302-0.31-0.468-0.45L276.939,2.835
	c-4.795-4.036-11.753-3.734-16.184,0.697c-4.673,4.673-4.673,12.273,0,16.943l52.926,52.929c1.248,1.248,1.248,3.279,0,4.527
	l-2.608,2.605l-58.988-58.985c-1.995-1.997-5.229-1.997-7.224,0c-1.995,1.995-1.995,5.229,0,7.224l58.988,58.988l-3.823,3.82
	L241.04,32.599c-1.994-1.995-5.229-1.995-7.223,0c-1.997,1.994-1.997,5.229,0,7.224l58.985,58.987l-2.605,2.608
	c-1.248,1.248-3.279,1.248-4.527,0L232.74,48.491c-2.262-2.262-5.271-3.51-8.472-3.51c-3.201,0-6.209,1.248-8.472,3.51
	c-4.431,4.431-4.729,11.39-0.697,16.187l58.364,69.376C273.601,134.221,273.751,134.376,273.91,134.522z"/>
</svg>
